0
SECTION
2
HEADER
9
$INSUNITS
70
4
0
ENDSEC
0
SECTION
2
TABLES
0
ENDSEC
0
SECTION
2
ENTITIES
0
LINE
8
SHEET
10
0.000
20
0.000
30
0.0
11
2440.000
21
0.000
31
0.0
0
LINE
8
SHEET
10
2440.000
20
0.000
30
0.0
11
2440.000
21
1220.000
31
0.0
0
LINE
8
SHEET
10
2440.000
20
1220.000
30
0.0
11
0.000
21
1220.000
31
0.0
0
LINE
8
SHEET
10
0.000
20
1220.000
30
0.0
11
0.000
21
0.000
31
0.0
0
LINE
8
CUT
10
15.000
20
15.000
30
0.0
11
965.000
21
15.000
31
0.0
0
LINE
8
CUT
10
965.000
20
15.000
30
0.0
11
965.000
21
815.000
31
0.0
0
LINE
8
CUT
10
965.000
20
815.000
30
0.0
11
15.000
21
815.000
31
0.0
0
LINE
8
CUT
10
15.000
20
815.000
30
0.0
11
15.000
21
15.000
31
0.0
0
LINE
8
CUT
10
977.000
20
15.000
30
0.0
11
1927.000
21
15.000
31
0.0
0
LINE
8
CUT
10
1927.000
20
15.000
30
0.0
11
1927.000
21
564.000
31
0.0
0
LINE
8
CUT
10
1927.000
20
564.000
30
0.0
11
977.000
21
564.000
31
0.0
0
LINE
8
CUT
10
977.000
20
564.000
30
0.0
11
977.000
21
15.000
31
0.0
0
LINE
8
CUT
10
977.000
20
576.000
30
0.0
11
1927.000
21
576.000
31
0.0
0
LINE
8
CUT
10
1927.000
20
576.000
30
0.0
11
1927.000
21
1125.000
31
0.0
0
LINE
8
CUT
10
1927.000
20
1125.000
30
0.0
11
977.000
21
1125.000
31
0.0
0
LINE
8
CUT
10
977.000
20
1125.000
30
0.0
11
977.000
21
576.000
31
0.0
0
LINE
8
CUT
10
15.000
20
827.000
30
0.0
11
935.000
21
827.000
31
0.0
0
LINE
8
CUT
10
935.000
20
827.000
30
0.0
11
935.000
21
1132.000
31
0.0
0
LINE
8
CUT
10
935.000
20
1132.000
30
0.0
11
15.000
21
1132.000
31
0.0
0
LINE
8
CUT
10
15.000
20
1132.000
30
0.0
11
15.000
21
827.000
31
0.0
0
LINE
8
CUT
10
1939.000
20
15.000
30
0.0
11
2009.000
21
15.000
31
0.0
0
LINE
8
CUT
10
2009.000
20
15.000
30
0.0
11
2009.000
21
935.000
31
0.0
0
LINE
8
CUT
10
2009.000
20
935.000
30
0.0
11
1939.000
21
935.000
31
0.0
0
LINE
8
CUT
10
1939.000
20
935.000
30
0.0
11
1939.000
21
15.000
31
0.0
0
LINE
8
CUT
10
947.000
20
1137.000
30
0.0
11
1867.000
21
1137.000
31
0.0
0
LINE
8
CUT
10
1867.000
20
1137.000
30
0.0
11
1867.000
21
1187.000
31
0.0
0
LINE
8
CUT
10
1867.000
20
1187.000
30
0.0
11
947.000
21
1187.000
31
0.0
0
LINE
8
CUT
10
947.000
20
1187.000
30
0.0
11
947.000
21
1137.000
31
0.0
0
LINE
8
CUT
10
2021.000
20
15.000
30
0.0
11
2219.000
21
15.000
31
0.0
0
LINE
8
CUT
10
2219.000
20
15.000
30
0.0
11
2219.000
21
933.000
31
0.0
0
LINE
8
CUT
10
2219.000
20
933.000
30
0.0
11
2021.000
21
933.000
31
0.0
0
LINE
8
CUT
10
2021.000
20
933.000
30
0.0
11
2021.000
21
15.000
31
0.0
0
LINE
8
CUT
10
2105.000
20
424.000
30
0.0
11
2135.000
21
424.000
31
0.0
0
LINE
8
CUT
10
2135.000
20
424.000
30
0.0
11
2135.000
21
524.000
31
0.0
0
LINE
8
CUT
10
2135.000
20
524.000
30
0.0
11
2105.000
21
524.000
31
0.0
0
LINE
8
CUT
10
2105.000
20
524.000
30
0.0
11
2105.000
21
424.000
31
0.0
0
LINE
8
CUT
10
2231.000
20
15.000
30
0.0
11
2311.000
21
15.000
31
0.0
0
LINE
8
CUT
10
2311.000
20
15.000
30
0.0
11
2311.000
21
933.000
31
0.0
0
LINE
8
CUT
10
2311.000
20
933.000
30
0.0
11
2231.000
21
933.000
31
0.0
0
LINE
8
CUT
10
2231.000
20
933.000
30
0.0
11
2231.000
21
15.000
31
0.0
0
CIRCLE
8
CUT
10
2271.000
20
474.000
30
0.0
40
15.000
0
LINE
8
CUT
10
2323.000
20
15.000
30
0.0
11
2403.000
21
15.000
31
0.0
0
LINE
8
CUT
10
2403.000
20
15.000
30
0.0
11
2403.000
21
933.000
31
0.0
0
LINE
8
CUT
10
2403.000
20
933.000
30
0.0
11
2323.000
21
933.000
31
0.0
0
LINE
8
CUT
10
2323.000
20
933.000
30
0.0
11
2323.000
21
15.000
31
0.0
0
CIRCLE
8
CUT
10
2363.000
20
474.000
30
0.0
40
15.000
0
LINE
8
CUT
10
15.000
20
1144.000
30
0.0
11
564.000
21
1144.000
31
0.0
0
LINE
8
CUT
10
564.000
20
1144.000
30
0.0
11
564.000
21
1164.000
31
0.0
0
LINE
8
CUT
10
564.000
20
1164.000
30
0.0
11
15.000
21
1164.000
31
0.0
0
LINE
8
CUT
10
15.000
20
1164.000
30
0.0
11
15.000
21
1144.000
31
0.0
0
LINE
8
CUT
10
15.000
20
1176.000
30
0.0
11
564.000
21
1176.000
31
0.0
0
LINE
8
CUT
10
564.000
20
1176.000
30
0.0
11
564.000
21
1196.000
31
0.0
0
LINE
8
CUT
10
564.000
20
1196.000
30
0.0
11
15.000
21
1196.000
31
0.0
0
LINE
8
CUT
10
15.000
20
1196.000
30
0.0
11
15.000
21
1176.000
31
0.0
0
LINE
8
CUT
10
2021.000
20
945.000
30
0.0
11
2326.000
21
945.000
31
0.0
0
LINE
8
CUT
10
2326.000
20
945.000
30
0.0
11
2326.000
21
1025.000
31
0.0
0
LINE
8
CUT
10
2326.000
20
1025.000
30
0.0
11
2021.000
21
1025.000
31
0.0
0
LINE
8
CUT
10
2021.000
20
1025.000
30
0.0
11
2021.000
21
945.000
31
0.0
0
LINE
8
CUT
10
1939.000
20
1037.000
30
0.0
11
2244.000
21
1037.000
31
0.0
0
LINE
8
CUT
10
2244.000
20
1037.000
30
0.0
11
2244.000
21
1117.000
31
0.0
0
LINE
8
CUT
10
2244.000
20
1117.000
30
0.0
11
1939.000
21
1117.000
31
0.0
0
LINE
8
CUT
10
1939.000
20
1117.000
30
0.0
11
1939.000
21
1037.000
31
0.0
0
LINE
8
CUT
10
2338.000
20
945.000
30
0.0
11
2378.000
21
945.000
31
0.0
0
LINE
8
CUT
10
2378.000
20
945.000
30
0.0
11
2378.000
21
1035.000
31
0.0
0
LINE
8
CUT
10
2378.000
20
1035.000
30
0.0
11
2338.000
21
1035.000
31
0.0
0
LINE
8
CUT
10
2338.000
20
1035.000
30
0.0
11
2338.000
21
945.000
31
0.0
0
LINE
8
CUT
10
2256.000
20
1037.000
30
0.0
11
2296.000
21
1037.000
31
0.0
0
LINE
8
CUT
10
2296.000
20
1037.000
30
0.0
11
2296.000
21
1127.000
31
0.0
0
LINE
8
CUT
10
2296.000
20
1127.000
30
0.0
11
2256.000
21
1127.000
31
0.0
0
LINE
8
CUT
10
2256.000
20
1127.000
30
0.0
11
2256.000
21
1037.000
31
0.0
0
LINE
8
CUT
10
2308.000
20
1047.000
30
0.0
11
2348.000
21
1047.000
31
0.0
0
LINE
8
CUT
10
2348.000
20
1047.000
30
0.0
11
2348.000
21
1137.000
31
0.0
0
LINE
8
CUT
10
2348.000
20
1137.000
30
0.0
11
2308.000
21
1137.000
31
0.0
0
LINE
8
CUT
10
2308.000
20
1137.000
30
0.0
11
2308.000
21
1047.000
31
0.0
0
LINE
8
CUT
10
2360.000
20
1047.000
30
0.0
11
2400.000
21
1047.000
31
0.0
0
LINE
8
CUT
10
2400.000
20
1047.000
30
0.0
11
2400.000
21
1137.000
31
0.0
0
LINE
8
CUT
10
2400.000
20
1137.000
30
0.0
11
2360.000
21
1137.000
31
0.0
0
LINE
8
CUT
10
2360.000
20
1137.000
30
0.0
11
2360.000
21
1047.000
31
0.0
0
LINE
8
CUT
10
1939.000
20
1129.000
30
0.0
11
2019.000
21
1129.000
31
0.0
0
LINE
8
CUT
10
2019.000
20
1129.000
30
0.0
11
2019.000
21
1179.000
31
0.0
0
LINE
8
CUT
10
2019.000
20
1179.000
30
0.0
11
1939.000
21
1179.000
31
0.0
0
LINE
8
CUT
10
1939.000
20
1179.000
30
0.0
11
1939.000
21
1129.000
31
0.0
0
LINE
8
CUT
10
2031.000
20
1129.000
30
0.0
11
2111.000
21
1129.000
31
0.0
0
LINE
8
CUT
10
2111.000
20
1129.000
30
0.0
11
2111.000
21
1179.000
31
0.0
0
LINE
8
CUT
10
2111.000
20
1179.000
30
0.0
11
2031.000
21
1179.000
31
0.0
0
LINE
8
CUT
10
2031.000
20
1179.000
30
0.0
11
2031.000
21
1129.000
31
0.0
0
ENDSEC
0
EOF