0
SECTION
2
HEADER
9
$INSUNITS
70
4
0
ENDSEC
0
SECTION
2
TABLES
0
ENDSEC
0
SECTION
2
ENTITIES
0
LINE
8
SHEET
10
0.000
20
0.000
30
0.0
11
2440.000
21
0.000
31
0.0
0
LINE
8
SHEET
10
2440.000
20
0.000
30
0.0
11
2440.000
21
1220.000
31
0.0
0
LINE
8
SHEET
10
2440.000
20
1220.000
30
0.0
11
0.000
21
1220.000
31
0.0
0
LINE
8
SHEET
10
0.000
20
1220.000
30
0.0
11
0.000
21
0.000
31
0.0
0
LINE
8
CUT
10
15.000
20
15.000
30
0.0
11
935.000
21
15.000
31
0.0
0
LINE
8
CUT
10
935.000
20
15.000
30
0.0
11
935.000
21
785.000
31
0.0
0
LINE
8
CUT
10
935.000
20
785.000
30
0.0
11
15.000
21
785.000
31
0.0
0
LINE
8
CUT
10
15.000
20
785.000
30
0.0
11
15.000
21
15.000
31
0.0
0
LINE
8
CUT
10
947.000
20
15.000
30
0.0
11
1747.000
21
15.000
31
0.0
0
LINE
8
CUT
10
1747.000
20
15.000
30
0.0
11
1747.000
21
335.000
31
0.0
0
LINE
8
CUT
10
1747.000
20
335.000
30
0.0
11
947.000
21
335.000
31
0.0
0
LINE
8
CUT
10
947.000
20
335.000
30
0.0
11
947.000
21
15.000
31
0.0
0
LINE
8
CUT
10
1027.000
20
55.000
30
0.0
11
1067.000
21
55.000
31
0.0
0
LINE
8
CUT
10
1067.000
20
55.000
30
0.0
11
1067.000
21
63.000
31
0.0
0
LINE
8
CUT
10
1067.000
20
63.000
30
0.0
11
1027.000
21
63.000
31
0.0
0
LINE
8
CUT
10
1027.000
20
63.000
30
0.0
11
1027.000
21
55.000
31
0.0
0
LINE
8
CUT
10
1627.000
20
55.000
30
0.0
11
1667.000
21
55.000
31
0.0
0
LINE
8
CUT
10
1667.000
20
55.000
30
0.0
11
1667.000
21
63.000
31
0.0
0
LINE
8
CUT
10
1667.000
20
63.000
30
0.0
11
1627.000
21
63.000
31
0.0
0
LINE
8
CUT
10
1627.000
20
63.000
30
0.0
11
1627.000
21
55.000
31
0.0
0
LINE
8
CUT
10
1027.000
20
287.000
30
0.0
11
1067.000
21
287.000
31
0.0
0
LINE
8
CUT
10
1067.000
20
287.000
30
0.0
11
1067.000
21
295.000
31
0.0
0
LINE
8
CUT
10
1067.000
20
295.000
30
0.0
11
1027.000
21
295.000
31
0.0
0
LINE
8
CUT
10
1027.000
20
295.000
30
0.0
11
1027.000
21
287.000
31
0.0
0
LINE
8
CUT
10
1627.000
20
287.000
30
0.0
11
1667.000
21
287.000
31
0.0
0
LINE
8
CUT
10
1667.000
20
287.000
30
0.0
11
1667.000
21
295.000
31
0.0
0
LINE
8
CUT
10
1667.000
20
295.000
30
0.0
11
1627.000
21
295.000
31
0.0
0
LINE
8
CUT
10
1627.000
20
295.000
30
0.0
11
1627.000
21
287.000
31
0.0
0
LINE
8
CUT
10
947.000
20
347.000
30
0.0
11
1747.000
21
347.000
31
0.0
0
LINE
8
CUT
10
1747.000
20
347.000
30
0.0
11
1747.000
21
667.000
31
0.0
0
LINE
8
CUT
10
1747.000
20
667.000
30
0.0
11
947.000
21
667.000
31
0.0
0
LINE
8
CUT
10
947.000
20
667.000
30
0.0
11
947.000
21
347.000
31
0.0
0
LINE
8
CUT
10
1027.000
20
387.000
30
0.0
11
1067.000
21
387.000
31
0.0
0
LINE
8
CUT
10
1067.000
20
387.000
30
0.0
11
1067.000
21
395.000
31
0.0
0
LINE
8
CUT
10
1067.000
20
395.000
30
0.0
11
1027.000
21
395.000
31
0.0
0
LINE
8
CUT
10
1027.000
20
395.000
30
0.0
11
1027.000
21
387.000
31
0.0
0
LINE
8
CUT
10
1627.000
20
387.000
30
0.0
11
1667.000
21
387.000
31
0.0
0
LINE
8
CUT
10
1667.000
20
387.000
30
0.0
11
1667.000
21
395.000
31
0.0
0
LINE
8
CUT
10
1667.000
20
395.000
30
0.0
11
1627.000
21
395.000
31
0.0
0
LINE
8
CUT
10
1627.000
20
395.000
30
0.0
11
1627.000
21
387.000
31
0.0
0
LINE
8
CUT
10
1027.000
20
619.000
30
0.0
11
1067.000
21
619.000
31
0.0
0
LINE
8
CUT
10
1067.000
20
619.000
30
0.0
11
1067.000
21
627.000
31
0.0
0
LINE
8
CUT
10
1067.000
20
627.000
30
0.0
11
1027.000
21
627.000
31
0.0
0
LINE
8
CUT
10
1027.000
20
627.000
30
0.0
11
1027.000
21
619.000
31
0.0
0
LINE
8
CUT
10
1627.000
20
619.000
30
0.0
11
1667.000
21
619.000
31
0.0
0
LINE
8
CUT
10
1667.000
20
619.000
30
0.0
11
1667.000
21
627.000
31
0.0
0
LINE
8
CUT
10
1667.000
20
627.000
30
0.0
11
1627.000
21
627.000
31
0.0
0
LINE
8
CUT
10
1627.000
20
627.000
30
0.0
11
1627.000
21
619.000
31
0.0
0
LINE
8
CUT
10
1759.000
20
15.000
30
0.0
11
2309.000
21
15.000
31
0.0
0
LINE
8
CUT
10
2309.000
20
15.000
30
0.0
11
2309.000
21
95.000
31
0.0
0
LINE
8
CUT
10
2309.000
20
95.000
30
0.0
11
1759.000
21
95.000
31
0.0
0
LINE
8
CUT
10
1759.000
20
95.000
30
0.0
11
1759.000
21
15.000
31
0.0
0
LINE
8
CUT
10
1759.000
20
107.000
30
0.0
11
2309.000
21
107.000
31
0.0
0
LINE
8
CUT
10
2309.000
20
107.000
30
0.0
11
2309.000
21
187.000
31
0.0
0
LINE
8
CUT
10
2309.000
20
187.000
30
0.0
11
1759.000
21
187.000
31
0.0
0
LINE
8
CUT
10
1759.000
20
187.000
30
0.0
11
1759.000
21
107.000
31
0.0
0
LINE
8
CUT
10
1759.000
20
199.000
30
0.0
11
2309.000
21
199.000
31
0.0
0
LINE
8
CUT
10
2309.000
20
199.000
30
0.0
11
2309.000
21
279.000
31
0.0
0
LINE
8
CUT
10
2309.000
20
279.000
30
0.0
11
1759.000
21
279.000
31
0.0
0
LINE
8
CUT
10
1759.000
20
279.000
30
0.0
11
1759.000
21
199.000
31
0.0
0
LINE
8
CUT
10
1759.000
20
291.000
30
0.0
11
2309.000
21
291.000
31
0.0
0
LINE
8
CUT
10
2309.000
20
291.000
30
0.0
11
2309.000
21
371.000
31
0.0
0
LINE
8
CUT
10
2309.000
20
371.000
30
0.0
11
1759.000
21
371.000
31
0.0
0
LINE
8
CUT
10
1759.000
20
371.000
30
0.0
11
1759.000
21
291.000
31
0.0
0
LINE
8
CUT
10
1759.000
20
383.000
30
0.0
11
1934.000
21
383.000
31
0.0
0
LINE
8
CUT
10
1934.000
20
383.000
30
0.0
11
1934.000
21
932.000
31
0.0
0
LINE
8
CUT
10
1934.000
20
932.000
30
0.0
11
1759.000
21
932.000
31
0.0
0
LINE
8
CUT
10
1759.000
20
932.000
30
0.0
11
1759.000
21
383.000
31
0.0
0
LINE
8
CUT
10
1946.000
20
383.000
30
0.0
11
2121.000
21
383.000
31
0.0
0
LINE
8
CUT
10
2121.000
20
383.000
30
0.0
11
2121.000
21
932.000
31
0.0
0
LINE
8
CUT
10
2121.000
20
932.000
30
0.0
11
1946.000
21
932.000
31
0.0
0
LINE
8
CUT
10
1946.000
20
932.000
30
0.0
11
1946.000
21
383.000
31
0.0
0
LINE
8
CUT
10
947.000
20
679.000
30
0.0
11
1496.000
21
679.000
31
0.0
0
LINE
8
CUT
10
1496.000
20
679.000
30
0.0
11
1496.000
21
699.000
31
0.0
0
LINE
8
CUT
10
1496.000
20
699.000
30
0.0
11
947.000
21
699.000
31
0.0
0
LINE
8
CUT
10
947.000
20
699.000
30
0.0
11
947.000
21
679.000
31
0.0
0
LINE
8
CUT
10
947.000
20
711.000
30
0.0
11
1496.000
21
711.000
31
0.0
0
LINE
8
CUT
10
1496.000
20
711.000
30
0.0
11
1496.000
21
731.000
31
0.0
0
LINE
8
CUT
10
1496.000
20
731.000
30
0.0
11
947.000
21
731.000
31
0.0
0
LINE
8
CUT
10
947.000
20
731.000
30
0.0
11
947.000
21
711.000
31
0.0
0
ENDSEC
0
EOF